<svg xmlns="http://www.w3.org/2000/svg" viewBox="0 0 4000 2000" preserveAspectRatio="none" id="mansionLayer" aria-hidden="true" focusable="false"><defs><radialGradient id="mzsoft" cx="50%" cy="50%" r="50%"><stop offset="0%" stop-color="#ffffff" stop-opacity=".95"/><stop offset="18%" stop-color="#e6f0ff" stop-opacity=".42"/><stop offset="46%" stop-color="#bcd4ff" stop-opacity=".13"/><stop offset="100%" stop-color="#9fc0ff" stop-opacity="0"/></radialGradient></defs><style>
  .mz-line{fill:none;stroke:#9fc4ff;stroke-width:1.15;stroke-opacity:.34;stroke-linecap:round;
    transition:stroke .28s ease,stroke-opacity .28s ease,stroke-width .28s ease}
  .mz-name{fill:#dce9ff;fill-opacity:.44;font-size:26px;font-weight:600;
    font-family:"Noto Serif SC","Songti SC","STSong",serif;letter-spacing:.08em;
    paint-order:stroke;stroke:#050a14;stroke-width:4px;stroke-opacity:.5;
    transition:fill .28s ease,fill-opacity .28s ease}
  .halo{fill:url(#mzsoft);opacity:.30}
  .flare{stroke:#ffffff;stroke-width:.8;stroke-opacity:.26;stroke-linecap:round}
</style><g class="mansion-layer"><g class="mansion" id="mz-0" data-mz="角宿" data-group="东方苍龙" data-gl="室女座"><path class="mz-line" d="M2236.7 1166.5L2263.3 1009M2263.3 1009L2194.4 949M2194.4 949L2213.3 932.5M2236.7 1166.5L2355.6 1077.9"/><circle cx="2236.7" cy="1166.5" r="9.3" fill="#d6e6ff"/><circle cx="2236.7" cy="1166.5" r="42.8" class="halo"/><path class="flare" d="M2162.3 1166.5H0M2236.7 1092.1V0"/><circle cx="2263.3" cy="1009" r="5.2" fill="#ffe9c0"/><circle cx="2194.4" cy="949" r="3.2" fill="#ffffff"/><circle cx="2213.3" cy="932.5" r="2.8" fill="#ffffff"/><circle cx="2355.6" cy="1077.9" r="2.6" fill="#ffffff"/><text class="mz-name" x="0" y="912.5" text-anchor="middle">角宿</text></g><g class="mansion" id="mz-1" data-mz="亢宿" data-group="东方苍龙" data-gl="室女座"><path class="mz-line" d="M2368.9 1133.1L2384.4 1146.4M2384.4 1146.4L2393.3 1162.6M2393.3 1162.6L2411.1 1172.9"/><circle cx="2368.9" cy="1133.1" r="3.4" fill="#ffffff"/><circle cx="2384.4" cy="1146.4" r="2.8" fill="#ffffff"/><circle cx="2393.3" cy="1162.6" r="2.8" fill="#ffffff"/><circle cx="2411.1" cy="1172.9" r="2.7" fill="#ffffff"/><circle cx="2376.7" cy="717.5" r="12.8" fill="#ffe9c0"/><circle cx="2376.7" cy="717.5" r="58.9" class="halo"/><path class="flare" d="M2274.3 717.5H0M2376.7 615.1V0"/><text class="mz-name" x="0" y="697.5" text-anchor="middle">亢宿</text></g><g class="mansion" id="mz-2" data-mz="氐宿" data-group="东方苍龙" data-gl="天秤座"><path class="mz-line" d="M2547.8 1140.5L2511.1 1237M2511.1 1237L2474.4 1237M2474.4 1237L2598.9 1219.7M2598.9 1219.7L2623.3 1280"/><circle cx="2547.8" cy="1140.5" r="2.5" fill="#ffffff"/><circle cx="2511.1" cy="1237" r="5.4" fill="#ffffff"/><circle cx="2598.9" cy="1219.7" r="3.8" fill="#ffffff"/><circle cx="2623.3" cy="1280" r="3" fill="#ffffff"/><circle cx="2474.4" cy="1237" r="3.5" fill="#ffffff"/><text class="mz-name" x="0" y="1120.5" text-anchor="middle">氐宿</text></g><g class="mansion" id="mz-3" data-mz="房宿" data-group="东方苍龙" data-gl="天蝎座"><path class="mz-line" d="M2663.3 1378.3L2675.6 1371.6M2675.6 1371.6L2682.2 1356.6M2682.2 1356.6L2687.8 1330.5M2663.3 1378.3L2748.3 1382.8"/><circle cx="2663.3" cy="1378.3" r="5.1" fill="#d6e6ff"/><circle cx="2675.6" cy="1371.6" r="4.1" fill="#d6e6ff"/><circle cx="2682.2" cy="1356.6" r="4.3" fill="#d6e6ff"/><circle cx="2687.8" cy="1330.5" r="4.5" fill="#d6e6ff"/><circle cx="2748.3" cy="1382.8" r="9.1" fill="#ffc4a8"/><circle cx="2748.3" cy="1382.8" r="41.9" class="halo"/><path class="flare" d="M2675.5 1382.8H0M2748.3 1310V0"/><text class="mz-name" x="0" y="1310.5" text-anchor="middle">房宿</text></g><g class="mansion" id="mz-4" data-mz="心宿" data-group="东方苍龙" data-gl="天蝎座"><path class="mz-line" d="M2725.6 1371.6L2748.3 1382.8M2748.3 1382.8L2766.7 1406.4"/><circle cx="2725.6" cy="1371.6" r="5" fill="#d6e6ff"/><circle cx="2748.3" cy="1382.8" r="9.1" fill="#ffc4a8"/><circle cx="2748.3" cy="1382.8" r="41.9" class="halo"/><path class="flare" d="M2675.5 1382.8H0M2748.3 1310V0"/><circle cx="2766.7" cy="1406.4" r="5.3" fill="#d6e6ff"/><text class="mz-name" x="0" y="1351.6" text-anchor="middle">心宿</text></g><g class="mansion" id="mz-5" data-mz="尾宿" data-group="东方苍龙" data-gl="天蝎座"><path class="mz-line" d="M2817.8 1529.5L2814.4 1579.9M2814.4 1579.9L2866.7 1588.7M2866.7 1588.7L2903.3 1588.7M2903.3 1588.7L2936.7 1586.5M2936.7 1586.5L2951.1 1541.2M2951.1 1541.2L2965.6 1553.9M2965.6 1553.9L2926.7 1518.8M2926.7 1518.8L2918.9 1521.2"/><circle cx="2817.8" cy="1529.5" r="2.5" fill="#ffffff"/><circle cx="2814.4" cy="1579.9" r="6" fill="#d6e6ff"/><circle cx="2814.4" cy="1579.9" r="20.4" class="halo"/><circle cx="2866.7" cy="1588.7" r="5" fill="#d6e6ff"/><circle cx="2903.3" cy="1588.7" r="5.5" fill="#d6e6ff"/><circle cx="2936.7" cy="1586.5" r="6" fill="#d6e6ff"/><circle cx="2936.7" cy="1586.5" r="20.4" class="halo"/><circle cx="2951.1" cy="1541.2" r="4.5" fill="#d6e6ff"/><circle cx="2965.6" cy="1553.9" r="5.3" fill="#d6e6ff"/><circle cx="2926.7" cy="1518.8" r="7.1" fill="#d6e6ff"/><circle cx="2926.7" cy="1518.8" r="24.1" class="halo"/><circle cx="2918.9" cy="1521.2" r="5.5" fill="#d6e6ff"/><text class="mz-name" x="0" y="1498.8" text-anchor="middle">尾宿</text></g><g class="mansion" id="mz-6" data-mz="箕宿" data-group="东方苍龙" data-gl="人马座"><path class="mz-line" d="M3016.7 1435.2L3044.4 1381M3044.4 1381L3093.3 1427.4M3093.3 1427.4L3066.7 1485.9M3066.7 1485.9L3016.7 1435.2"/><circle cx="3016.7" cy="1435.2" r="5" fill="#ffffff"/><circle cx="3044.4" cy="1381" r="5.6" fill="#ffe9c0"/><circle cx="3066.7" cy="1485.9" r="5.5" fill="#ffffff"/><circle cx="3093.3" cy="1427.4" r="4.8" fill="#ffffff"/><circle cx="3153.3" cy="1381" r="5.3" fill="#ffffff"/><text class="mz-name" x="0" y="1361" text-anchor="middle">箕宿</text></g><g class="mansion" id="mz-7" data-mz="斗宿" data-group="北方玄武" data-gl="人马座"><path class="mz-line" d="M3153.3 1381L3174.4 1368.9M3174.4 1368.9L3204.4 1327.7M3204.4 1327.7L3193.3 1308.2M3193.3 1308.2L3185.6 1399.8M3185.6 1399.8L3153.3 1381M3204.4 1327.7L3237.8 1356.6M3237.8 1356.6L3111.1 1403.7"/><circle cx="3153.3" cy="1381" r="5.3" fill="#ffffff"/><circle cx="3174.4" cy="1368.9" r="4.7" fill="#ffe9c0"/><circle cx="3185.6" cy="1399.8" r="5" fill="#ffffff"/><circle cx="3193.3" cy="1308.2" r="6.8" fill="#ffe9c0"/><circle cx="3193.3" cy="1308.2" r="23.1" class="halo"/><circle cx="3204.4" cy="1327.7" r="5" fill="#ffffff"/><circle cx="3237.8" cy="1356.6" r="4.7" fill="#ffffff"/><circle cx="3111.1" cy="1403.7" r="3.2" fill="#ffffff"/><text class="mz-name" x="0" y="1288.2" text-anchor="middle">斗宿</text></g><g class="mansion" id="mz-8" data-mz="牛宿" data-group="北方玄武" data-gl="摩羯座"><path class="mz-line" d="M3392.2 1219.7L3383.3 1186.1M3392.2 1219.7L3364.4 1242.8M3364.4 1242.8L3354.4 1280M3354.4 1280L3337.8 1308.2M3337.8 1308.2L3324.4 1334.6"/><circle cx="3392.2" cy="1219.7" r="4.9" fill="#ffffff"/><circle cx="3383.3" cy="1186.1" r="4.1" fill="#ffffff"/><circle cx="3364.4" cy="1242.8" r="3.5" fill="#ffffff"/><circle cx="3354.4" cy="1280" r="3.1" fill="#ffffff"/><circle cx="3337.8" cy="1308.2" r="2.9" fill="#ffffff"/><circle cx="3324.4" cy="1334.6" r="2.7" fill="#ffffff"/><text class="mz-name" x="0" y="1166.1" text-anchor="middle">牛宿</text></g><g class="mansion" id="mz-9" data-mz="女宿" data-group="北方玄武" data-gl="宝瓶座"><path class="mz-line" d="M3465.6 1141.9L3472.2 1153.8M3472.2 1153.8L3477.8 1168.5M3477.8 1168.5L3488.9 1183.2M3465.6 1141.9L3587.8 1083.9"/><circle cx="3465.6" cy="1141.9" r="3.9" fill="#ffffff"/><circle cx="3472.2" cy="1153.8" r="3.2" fill="#ffffff"/><circle cx="3477.8" cy="1168.5" r="2.7" fill="#ffffff"/><circle cx="3488.9" cy="1183.2" r="2.8" fill="#ffffff"/><circle cx="3587.8" cy="1083.9" r="5.1" fill="#ffffff"/><text class="mz-name" x="0" y="1063.9" text-anchor="middle">女宿</text></g><g class="mansion" id="mz-10" data-mz="虚宿" data-group="北方玄武" data-gl="宝瓶座"><path class="mz-line" d="M3587.8 1083.9L3574.4 1063M3574.4 1063L3682.2 1004.5"/><circle cx="3587.8" cy="1083.9" r="5.1" fill="#ffffff"/><circle cx="3574.4" cy="1063" r="3.5" fill="#ffffff"/><circle cx="3682.2" cy="1004.5" r="4.4" fill="#ffe9c0"/><text class="mz-name" x="0" y="984.5" text-anchor="middle">虚宿</text></g><g class="mansion" id="mz-11" data-mz="危宿" data-group="北方玄武" data-gl="宝瓶座 / 飞马座"><path class="mz-line" d="M3682.2 1004.5L3700 985M3700 985L3713.3 967M3713.3 967L3782.2 1000M3782.2 1000L3764.4 1015"/><circle cx="3682.2" cy="1004.5" r="4.4" fill="#ffe9c0"/><circle cx="3700" cy="985" r="3.6" fill="#ffe9c0"/><circle cx="3713.3" cy="967" r="3.3" fill="#ffe9c0"/><circle cx="3782.2" cy="1000" r="3.9" fill="#ffffff"/><circle cx="3764.4" cy="1015" r="3.3" fill="#ffffff"/><text class="mz-name" x="0" y="947" text-anchor="middle">危宿</text></g><g class="mansion" id="mz-12" data-mz="室宿" data-group="北方玄武" data-gl="飞马座"><path class="mz-line" d="M3846.7 774.5L3843.3 594.9M2.2 581.8L1.1 774.5"/><circle cx="3846.7" cy="774.5" r="5.8" fill="#ffc4a8"/><circle cx="3846.7" cy="774.5" r="19.7" class="halo"/><circle cx="3843.3" cy="594.9" r="6" fill="#ffc4a8"/><circle cx="3843.3" cy="594.9" r="20.4" class="halo"/><circle cx="2.2" cy="581.8" r="6.7" fill="#d6e6ff"/><circle cx="2.2" cy="581.8" r="22.8" class="halo"/><circle cx="1.1" cy="774.5" r="5.2" fill="#d6e6ff"/><text class="mz-name" x="0" y="561.8" text-anchor="middle">室宿</text></g><g class="mansion" id="mz-13" data-mz="壁宿" data-group="北方玄武" data-gl="飞马座 / 仙女座"><path class="mz-line" d="M2.2 581.8L1.1 774.5M2.2 581.8L23.3 421.2"/><circle cx="2.2" cy="581.8" r="6.7" fill="#d6e6ff"/><circle cx="2.2" cy="581.8" r="22.8" class="halo"/><circle cx="1.1" cy="774.5" r="5.2" fill="#d6e6ff"/><circle cx="23.3" cy="421.2" r="6.7" fill="#ffe9c0"/><circle cx="23.3" cy="421.2" r="22.8" class="halo"/><text class="mz-name" x="0" y="401.2" text-anchor="middle">壁宿</text></g><g class="mansion" id="mz-14" data-mz="奎宿" data-group="西方白虎" data-gl="仙女座 / 双鱼座"><path class="mz-line" d="M138.9 570L167.8 623M167.8 623L193.3 642M193.3 642L227.8 665.4M227.8 665.4L255.6 684.8M255.6 684.8L285.6 705.9M285.6 705.9L316.7 727.1M316.7 727.1L344.4 748.6M138.9 570L13.3 499.4"/><circle cx="138.9" cy="570" r="3.2" fill="#ffffff"/><circle cx="167.8" cy="623" r="3.1" fill="#ffffff"/><circle cx="193.3" cy="642" r="2.9" fill="#ffffff"/><circle cx="227.8" cy="665.4" r="2.8" fill="#ffffff"/><circle cx="255.6" cy="684.8" r="2.5" fill="#ffffff"/><circle cx="285.6" cy="705.9" r="2.3" fill="#ffffff"/><circle cx="316.7" cy="727.1" r="2.1" fill="#ffffff"/><circle cx="344.4" cy="748.6" r="2.3" fill="#ffffff"/><circle cx="13.3" cy="499.4" r="6.7" fill="#ffc4a8"/><circle cx="13.3" cy="499.4" r="22.8" class="halo"/><text class="mz-name" x="0" y="479.4" text-anchor="middle">奎宿</text></g><g class="mansion" id="mz-15" data-mz="娄宿" data-group="西方白虎" data-gl="白羊座"><path class="mz-line" d="M315.6 715.8L304.4 697.4M304.4 697.4L318.9 679.2M315.6 715.8L381.1 648.8"/><circle cx="315.6" cy="715.8" r="3.8" fill="#ffffff"/><circle cx="304.4" cy="697.4" r="3.1" fill="#ffffff"/><circle cx="318.9" cy="679.2" r="6.8" fill="#ffe9c0"/><circle cx="318.9" cy="679.2" r="23.1" class="halo"/><circle cx="381.1" cy="648.8" r="4.1" fill="#ffffff"/><text class="mz-name" x="0" y="628.8" text-anchor="middle">娄宿</text></g><g class="mansion" id="mz-16" data-mz="胃宿" data-group="西方白虎" data-gl="白羊座"><path class="mz-line" d="M381.1 648.8L395.6 629.8M395.6 629.8L410 609.6M381.1 648.8L632.2 648.8"/><circle cx="381.1" cy="648.8" r="4.1" fill="#ffffff"/><circle cx="395.6" cy="629.8" r="3.1" fill="#ffffff"/><circle cx="410" cy="609.6" r="2.8" fill="#ffffff"/><circle cx="632.2" cy="648.8" r="5.2" fill="#d6e6ff"/><text class="mz-name" x="0" y="589.6" text-anchor="middle">胃宿</text></g><g class="mansion" id="mz-17" data-mz="昴宿" data-group="西方白虎" data-gl="金牛座"><path class="mz-line" d="M632.2 648.8L624.4 651.6M624.4 651.6L627.8 642M627.8 642L626.7 657.1M626.7 657.1L623.3 644.7M623.3 644.7L622.2 650.2M622.2 650.2L632.2 648.8M622.2 650.2L622.2 637.9M622.2 637.9L618.9 647.5"/><circle cx="632.2" cy="648.8" r="5.2" fill="#d6e6ff"/><circle cx="624.4" cy="651.6" r="4" fill="#d6e6ff"/><circle cx="627.8" cy="642" r="3.8" fill="#d6e6ff"/><circle cx="626.7" cy="657.1" r="3.4" fill="#d6e6ff"/><circle cx="623.3" cy="644.7" r="3.3" fill="#d6e6ff"/><circle cx="622.2" cy="650.2" r="5.2" fill="#d6e6ff"/><circle cx="622.2" cy="637.9" r="2.6" fill="#d6e6ff"/><circle cx="618.9" cy="647.5" r="2.2" fill="#d6e6ff"/><text class="mz-name" x="0" y="617.9" text-anchor="middle">昴宿</text></g><g class="mansion" id="mz-18" data-mz="毕宿" data-group="西方白虎" data-gl="金牛座"><path class="mz-line" d="M746.7 717.2L737.8 734.2M746.7 717.2L765.6 755.7M765.6 755.7L766.7 768.7M765.6 755.7L766.4 755.6M746.7 717.2L778.9 813.9M778.9 813.9L792.2 837.4"/><circle cx="746.7" cy="717.2" r="4.3" fill="#ffe9c0"/><circle cx="737.8" cy="734.2" r="3.3" fill="#ffe9c0"/><circle cx="765.6" cy="755.7" r="4.1" fill="#ffe9c0"/><circle cx="766.7" cy="768.7" r="3.3" fill="#ffe9c0"/><circle cx="766.4" cy="755.6" r="9.7" fill="#ffc4a8"/><circle cx="766.4" cy="755.6" r="44.6" class="halo"/><path class="flare" d="M688.8 755.6H0M766.4 678V0"/><circle cx="778.9" cy="813.9" r="3.3" fill="#ffffff"/><circle cx="792.2" cy="837.4" r="3" fill="#ffffff"/><text class="mz-name" x="0" y="697.2" text-anchor="middle">毕宿</text></g><g class="mansion" id="mz-19" data-mz="觜宿" data-group="西方白虎" data-gl="猎户座"><path class="mz-line" d="M931.1 852.1L922.2 847.7M922.2 847.7L986.6 889.1"/><circle cx="931.1" cy="852.1" r="4.4" fill="#d6e6ff"/><circle cx="922.2" cy="847.7" r="3.2" fill="#d6e6ff"/><circle cx="986.6" cy="889.1" r="11.1" fill="#ffc4a8"/><circle cx="986.6" cy="889.1" r="51.1" class="halo"/><path class="flare" d="M897.8 889.1H0M986.6 800.3V0"/><text class="mz-name" x="0" y="827.7" text-anchor="middle">觜宿</text></g><g class="mansion" id="mz-20" data-mz="参宿" data-group="西方白虎" data-gl="猎户座"><path class="mz-line" d="M986.6 889.1L903.1 904.9M903.1 904.9L933.9 1018M933.9 1018L946.6 1029.1M946.6 1029.1L873.7 1122.7M873.7 1122.7L908.3 1018M908.3 1018L966 1144.5M966 1144.5L946.6 1029.1M903.1 904.9L922.2 1004.5M922.2 1004.5L946.6 1029.1M922.2 1004.5L1000 910.1"/><circle cx="946.6" cy="1029.1" r="7.4" fill="#d6e6ff"/><circle cx="946.6" cy="1029.1" r="25.2" class="halo"/><circle cx="933.9" cy="1018" r="7.6" fill="#d6e6ff"/><circle cx="933.9" cy="1018" r="25.8" class="halo"/><circle cx="922.2" cy="1004.5" r="6.3" fill="#d6e6ff"/><circle cx="922.2" cy="1004.5" r="21.4" class="halo"/><circle cx="986.6" cy="889.1" r="11.1" fill="#ffc4a8"/><circle cx="986.6" cy="889.1" r="51.1" class="halo"/><path class="flare" d="M897.8 889.1H0M986.6 800.3V0"/><circle cx="903.1" cy="904.9" r="7.6" fill="#d6e6ff"/><circle cx="903.1" cy="904.9" r="25.8" class="halo"/><circle cx="908.3" cy="1018" r="6.7" fill="#d6e6ff"/><circle cx="908.3" cy="1018" r="22.8" class="halo"/><circle cx="873.7" cy="1122.7" r="12.1" fill="#d6e6ff"/><circle cx="873.7" cy="1122.7" r="55.7" class="halo"/><path class="flare" d="M776.9 1122.7H0M873.7 1025.9V0"/><circle cx="966" cy="1144.5" r="5.6" fill="#d6e6ff"/><circle cx="1000" cy="910.1" r="4.4" fill="#ffffff"/><text class="mz-name" x="0" y="869.1" text-anchor="middle">参宿</text></g><g class="mansion" id="mz-21" data-mz="井宿" data-group="西方白虎" data-gl="双子座"><path class="mz-line" d="M1063.3 670.9L1054.4 691.8M1063.3 670.9L1122.2 635.2M1122.2 635.2L1104.4 757.2M1063.3 670.9L1111.1 677.8M1104.4 757.2L1292.2 596.3M1292.2 596.3L1262.2 545.5"/><circle cx="1063.3" cy="670.9" r="5.1" fill="#ffc4a8"/><circle cx="1054.4" cy="691.8" r="4.1" fill="#ffffff"/><circle cx="1122.2" cy="635.2" r="4.1" fill="#ffffff"/><circle cx="1111.1" cy="677.8" r="4.3" fill="#ffffff"/><circle cx="1104.4" cy="757.2" r="5" fill="#ffffff"/><circle cx="1292.2" cy="596.3" r="8.9" fill="#ffe9c0"/><circle cx="1292.2" cy="596.3" r="40.9" class="halo"/><path class="flare" d="M1221 596.3H0M1292.2 525.1V0"/><circle cx="1262.2" cy="545.5" r="7.7" fill="#ffffff"/><circle cx="1262.2" cy="545.5" r="26.2" class="halo"/><text class="mz-name" x="0" y="525.5" text-anchor="middle">井宿</text></g><g class="mansion" id="mz-22" data-mz="鬼宿" data-group="西方白虎" data-gl="巨蟹座"><path class="mz-line" d="M1457.8 731.4L1453.3 712.9M1453.3 712.9L1444.4 691.8M1444.4 691.8L1437.8 673.7"/><circle cx="1457.8" cy="731.4" r="2.9" fill="#ffffff"/><circle cx="1453.3" cy="712.9" r="2.7" fill="#ffffff"/><circle cx="1444.4" cy="691.8" r="2.7" fill="#ffffff"/><circle cx="1437.8" cy="673.7" r="2.9" fill="#ffffff"/><text class="mz-name" x="0" y="653.7" text-anchor="middle">鬼宿</text></g><g class="mansion" id="mz-23" data-mz="柳宿" data-group="西方白虎" data-gl="长蛇座"><path class="mz-line" d="M1483.3 914.6L1488.9 901.2M1488.9 901.2L1497.8 887.7M1497.8 887.7L1506.7 872.9M1506.7 872.9L1516.7 858.1M1516.7 858.1L1527.8 843.3M1527.8 843.3L1540 828.5M1540 828.5L1551.1 813.9"/><circle cx="1483.3" cy="914.6" r="3.4" fill="#ffffff"/><circle cx="1488.9" cy="901.2" r="3.3" fill="#ffffff"/><circle cx="1497.8" cy="887.7" r="3.1" fill="#ffffff"/><circle cx="1506.7" cy="872.9" r="2.8" fill="#ffffff"/><circle cx="1516.7" cy="858.1" r="2.8" fill="#ffffff"/><circle cx="1527.8" cy="843.3" r="2.7" fill="#ffffff"/><circle cx="1540" cy="828.5" r="2.5" fill="#ffffff"/><circle cx="1551.1" cy="813.9" r="2.4" fill="#ffffff"/><text class="mz-name" x="0" y="793.9" text-anchor="middle">柳宿</text></g><g class="mansion" id="mz-24" data-mz="星宿" data-group="西方白虎" data-gl="长蛇座"><path class="mz-line" d="M1576.7 1130.1L1566.7 1104.8M1566.7 1104.8L1555.6 1082.4M1576.7 1130.1L1583.3 1156.7M1583.3 1156.7L1600 1178.8M1600 1178.8L1611.1 1208.1"/><circle cx="1576.7" cy="1130.1" r="6.8" fill="#ffe9c0"/><circle cx="1576.7" cy="1130.1" r="23.1" class="halo"/><circle cx="1566.7" cy="1104.8" r="3.5" fill="#ffffff"/><circle cx="1555.6" cy="1082.4" r="3.2" fill="#ffffff"/><circle cx="1583.3" cy="1156.7" r="2.8" fill="#ffffff"/><circle cx="1600" cy="1178.8" r="2.5" fill="#ffffff"/><circle cx="1611.1" cy="1208.1" r="2.9" fill="#ffffff"/><text class="mz-name" x="0" y="1062.4" text-anchor="middle">星宿</text></g><g class="mansion" id="mz-25" data-mz="张宿" data-group="西方白虎" data-gl="长蛇座"><path class="mz-line" d="M1611.1 1208.1L1622.2 1229.8M1622.2 1229.8L1633.3 1251.4M1633.3 1251.4L1644.4 1272.9M1644.4 1272.9L1655.6 1294.1M1655.6 1294.1L1666.7 1315.2"/><circle cx="1611.1" cy="1208.1" r="2.9" fill="#ffffff"/><circle cx="1622.2" cy="1229.8" r="2.7" fill="#ffffff"/><circle cx="1633.3" cy="1251.4" r="2.5" fill="#ffffff"/><circle cx="1644.4" cy="1272.9" r="2.4" fill="#ffffff"/><circle cx="1655.6" cy="1294.1" r="2.2" fill="#ffffff"/><circle cx="1666.7" cy="1315.2" r="2.1" fill="#ffffff"/><text class="mz-name" x="0" y="1188.1" text-anchor="middle">张宿</text></g><g class="mansion" id="mz-26" data-mz="翼宿" data-group="西方白虎" data-gl="巨爵座"><path class="mz-line" d="M1843.3 1270L1855.6 1251.4M1855.6 1251.4L1872.2 1237M1872.2 1237L1883.3 1222.6M1883.3 1222.6L1894.4 1208.1M1894.4 1208.1L1911.1 1193.5M1911.1 1193.5L1927.8 1178.8"/><circle cx="1843.3" cy="1270" r="3.5" fill="#ffe9c0"/><circle cx="1855.6" cy="1251.4" r="2.5" fill="#ffffff"/><circle cx="1872.2" cy="1237" r="2.4" fill="#ffffff"/><circle cx="1883.3" cy="1222.6" r="2.3" fill="#ffffff"/><circle cx="1894.4" cy="1208.1" r="2.2" fill="#ffffff"/><circle cx="1911.1" cy="1193.5" r="2.3" fill="#ffffff"/><circle cx="1927.8" cy="1178.8" r="2.2" fill="#ffffff"/><text class="mz-name" x="0" y="1158.8" text-anchor="middle">翼宿</text></g><g class="mansion" id="mz-27" data-mz="轸宿" data-group="西方白虎" data-gl="乌鸦座"><path class="mz-line" d="M2043.9 1259.2L2023.3 1330.5M2023.3 1330.5L2095.6 1341.5M2095.6 1341.5L2083.3 1244.3M2083.3 1244.3L2043.9 1259.2M2043.9 1259.2L2073.3 1294.1"/><circle cx="2043.9" cy="1259.2" r="5.6" fill="#ffffff"/><circle cx="2043.9" cy="1259.2" r="19" class="halo"/><circle cx="2023.3" cy="1330.5" r="5.1" fill="#ffffff"/><circle cx="2083.3" cy="1244.3" r="5.5" fill="#ffffff"/><circle cx="2095.6" cy="1341.5" r="5" fill="#ffffff"/><circle cx="2073.3" cy="1294.1" r="3.6" fill="#ffffff"/><text class="mz-name" x="0" y="1224.3" text-anchor="middle">轸宿</text></g><g class="mansion" id="mz-28" data-mz="井宿·南河" data-group="南方朱雀" data-gl="小犬座"><path class="mz-line" d="M1275.9 921.8L1260 902.6M1260 902.6L1233.3 880.3M1275.9 921.8L1125.4 1247.4"/><circle cx="1275.9" cy="921.8" r="11.2" fill="#ffe9c0"/><circle cx="1275.9" cy="921.8" r="51.5" class="halo"/><path class="flare" d="M1186.3 921.8H0M1275.9 832.2V0"/><circle cx="1260" cy="902.6" r="3.3" fill="#ffffff"/><circle cx="1233.3" cy="880.3" r="2.9" fill="#ffffff"/><circle cx="1125.4" cy="1247.4" r="19.9" fill="#d6e6ff"/><circle cx="1125.4" cy="1247.4" r="91.5" class="halo"/><path class="flare" d="M966.2 1247.4H0M1125.4 1088.2V0"/><text class="mz-name" x="0" y="860.3" text-anchor="middle">井宿·南河</text></g><g class="mansion" id="mz-29" data-mz="天狼·军市" data-group="南方朱雀" data-gl="大犬座"><path class="mz-line" d="M1125.4 1247.4L1166.7 1294.1M1166.7 1294.1L1188.9 1363.5M1125.4 1247.4L1063.3 1264.3M1063.3 1264.3L1066.6 1684.1"/><circle cx="1125.4" cy="1247.4" r="19.9" fill="#d6e6ff"/><circle cx="1125.4" cy="1247.4" r="91.5" class="halo"/><path class="flare" d="M966.2 1247.4H0M1125.4 1088.2V0"/><circle cx="1166.7" cy="1294.1" r="4.3" fill="#ffffff"/><circle cx="1188.9" cy="1363.5" r="5" fill="#ffffff"/><circle cx="1063.3" cy="1264.3" r="7.9" fill="#d6e6ff"/><circle cx="1063.3" cy="1264.3" r="26.9" class="halo"/><circle cx="1066.6" cy="1684.1" r="15.8" fill="#ffe9c0"/><circle cx="1066.6" cy="1684.1" r="72.7" class="halo"/><path class="flare" d="M940.2 1684.1H0M1066.6 1557.7V0"/><text class="mz-name" x="0" y="1227.4" text-anchor="middle">天狼·军市</text></g><g class="mansion" id="mz-30" data-mz="北极·紫微" data-group="紫微垣" data-gl="小熊座"><path class="mz-line" d="M421.7 140.1L411.1 141.2M411.1 141.2L400 143.3M400 143.3L394.4 146.4M394.4 146.4L388.9 150.6M388.9 150.6L383.3 155.8M1843.3 242.4L1838.9 283.7M1838.9 283.7L1983.3 306.9M1983.3 306.9L2043.3 278.7M2043.3 278.7L2150 287.4M2150 287.4L2233.3 296.4M2233.3 296.4L2298.9 348"/><circle cx="421.7" cy="140.1" r="6.8" fill="#ffe9c0"/><circle cx="421.7" cy="140.1" r="23.1" class="halo"/><circle cx="411.1" cy="141.2" r="6.8" fill="#ffffff"/><circle cx="411.1" cy="141.2" r="23.1" class="halo"/><circle cx="400" cy="143.3" r="5" fill="#ffffff"/><circle cx="394.4" cy="146.4" r="4.1" fill="#ffffff"/><circle cx="388.9" cy="150.6" r="3.4" fill="#ffffff"/><circle cx="383.3" cy="155.8" r="3" fill="#ffffff"/><circle cx="1843.3" cy="242.4" r="7.2" fill="#ffe9c0"/><circle cx="1843.3" cy="242.4" r="24.5" class="halo"/><circle cx="1838.9" cy="283.7" r="6.1" fill="#ffffff"/><circle cx="1838.9" cy="283.7" r="20.7" class="halo"/><circle cx="1983.3" cy="306.9" r="5.9" fill="#ffffff"/><circle cx="1983.3" cy="306.9" r="20.1" class="halo"/><circle cx="2043.3" cy="278.7" r="4.5" fill="#ffffff"/><circle cx="2150" cy="287.4" r="7.3" fill="#ffffff"/><circle cx="2150" cy="287.4" r="24.8" class="halo"/><circle cx="2233.3" cy="296.4" r="6.3" fill="#ffffff"/><circle cx="2233.3" cy="296.4" r="21.4" class="halo"/><circle cx="2298.9" cy="348" r="7.1" fill="#ffffff"/><circle cx="2298.9" cy="348" r="24.1" class="halo"/><text class="mz-name" x="0" y="120.1" text-anchor="middle">北极·紫微</text></g></g></svg>